<svg xmlns="http://www.w3.org/2000/svg" xmlns:xlink="http://www.w3.org/1999/xlink" width="512" zoomAndPan="magnify" viewBox="0 0 384 383.999986" height="512" preserveAspectRatio="xMidYMid meet" version="1.0"><defs><clipPath id="487ae97355"><path d="M 301 216 L 320.84375 216 L 320.84375 234 L 301 234 Z M 301 216 " clip-rule="nonzero"/></clipPath></defs><path fill="#ffffff" d="M 87.1875 238.007812 C 85.023438 235.84375 81.714844 235.636719 79.800781 237.550781 L 72.0625 245.300781 C 70.148438 247.210938 70.355469 250.519531 72.519531 252.683594 C 74.683594 254.847656 77.992188 255.054688 79.90625 253.140625 L 87.644531 245.402344 C 89.558594 243.480469 89.351562 240.15625 87.1875 238.007812 Z M 87.1875 238.007812 " fill-opacity="1" fill-rule="nonzero"/><path fill="#ffffff" d="M 79.863281 230.664062 C 77.699219 228.5 74.390625 228.292969 72.480469 230.207031 L 64.765625 237.945312 C 62.851562 239.859375 63.058594 243.164062 65.222656 245.328125 C 67.386719 247.496094 70.695312 247.699219 72.609375 245.789062 L 76.476562 241.921875 L 80.347656 238.046875 C 82.214844 236.136719 82.007812 232.828125 79.863281 230.664062 Z M 79.863281 230.664062 " fill-opacity="1" fill-rule="nonzero"/><path fill="#ffffff" d="M 190.609375 297.667969 C 190.210938 297.667969 189.820312 297.597656 189.445312 297.457031 C 189.015625 297.304688 188.636719 297.078125 188.300781 296.773438 C 187.964844 296.46875 187.699219 296.109375 187.503906 295.699219 C 187.3125 295.289062 187.207031 294.855469 187.183594 294.402344 C 187.164062 293.949219 187.230469 293.507812 187.386719 293.082031 C 193.003906 277.691406 181.4375 265.996094 180.945312 265.503906 C 180.636719 265.183594 180.402344 264.816406 180.238281 264.40625 C 180.078125 263.992188 179.996094 263.566406 180 263.121094 C 180.003906 262.679688 180.089844 262.253906 180.257812 261.84375 C 180.425781 261.433594 180.667969 261.070312 180.976562 260.753906 C 181.289062 260.4375 181.648438 260.191406 182.054688 260.015625 C 182.460938 259.839844 182.882812 259.746094 183.328125 259.734375 C 183.769531 259.722656 184.199219 259.792969 184.613281 259.949219 C 185.027344 260.105469 185.398438 260.332031 185.726562 260.632812 C 186.351562 261.246094 200.949219 275.835938 193.800781 295.421875 C 193.679688 295.75 193.515625 296.050781 193.300781 296.328125 C 193.089844 296.605469 192.84375 296.84375 192.558594 297.046875 C 192.273438 297.246094 191.964844 297.398438 191.632812 297.507812 C 191.300781 297.613281 190.960938 297.667969 190.609375 297.667969 Z M 190.609375 297.667969 " fill-opacity="1" fill-rule="nonzero"/><path fill="#4caf50" d="M 193.960938 343.496094 L 166.308594 331.691406 C 165.414062 331.308594 164.5625 330.839844 163.761719 330.292969 C 162.957031 329.742188 162.214844 329.121094 161.535156 328.425781 C 160.851562 327.726562 160.246094 326.972656 159.714844 326.15625 C 159.183594 325.34375 158.734375 324.484375 158.371094 323.578125 C 158.007812 322.675781 157.738281 321.746094 157.558594 320.789062 C 157.378906 319.832031 157.292969 318.867188 157.304688 317.894531 C 157.316406 316.921875 157.421875 315.957031 157.621094 315.003906 C 157.820312 314.050781 158.113281 313.128906 158.496094 312.234375 L 165.261719 296.378906 C 165.644531 295.484375 166.109375 294.636719 166.660156 293.832031 C 167.210938 293.027344 167.832031 292.285156 168.527344 291.605469 C 169.222656 290.925781 169.980469 290.316406 170.796875 289.785156 C 171.609375 289.253906 172.46875 288.808594 173.371094 288.445312 C 174.277344 288.082031 175.207031 287.808594 176.164062 287.628906 C 177.121094 287.449219 178.085938 287.367188 179.058594 287.375 C 180.03125 287.386719 180.996094 287.492188 181.949219 287.691406 C 182.898438 287.894531 183.824219 288.183594 184.71875 288.566406 L 187.519531 289.761719 C 188.332031 290.109375 189.128906 290.496094 189.902344 290.921875 C 190.679688 291.347656 191.433594 291.808594 192.164062 292.308594 C 192.894531 292.808594 193.597656 293.34375 194.277344 293.914062 C 194.953125 294.480469 195.601562 295.082031 196.222656 295.714844 C 196.839844 296.347656 197.425781 297.007812 197.980469 297.699219 C 198.535156 298.390625 199.054688 299.105469 199.539062 299.847656 C 200.023438 300.585938 200.46875 301.351562 200.878906 302.136719 C 201.285156 302.921875 201.65625 303.722656 201.984375 304.542969 C 202.316406 305.367188 202.605469 306.203125 202.851562 307.050781 C 203.097656 307.902344 203.304688 308.761719 203.46875 309.628906 C 203.632812 310.5 203.75 311.375 203.828125 312.257812 C 203.90625 313.140625 203.941406 314.023438 203.929688 314.90625 C 203.921875 315.792969 203.867188 316.675781 203.769531 317.554688 C 203.675781 318.433594 203.535156 319.308594 203.355469 320.171875 C 203.171875 321.039062 202.949219 321.894531 202.679688 322.738281 C 202.414062 323.582031 202.109375 324.414062 201.761719 325.226562 Z M 193.960938 343.496094 " fill-opacity="1" fill-rule="nonzero"/><path fill="#ffffff" d="M 194.121094 343.566406 L 168.277344 332.53125 C 168.542969 331.910156 168.867188 331.320312 169.246094 330.765625 C 169.628906 330.207031 170.0625 329.691406 170.542969 329.21875 C 171.027344 328.746094 171.550781 328.328125 172.117188 327.957031 C 172.679688 327.589844 173.277344 327.277344 173.90625 327.027344 C 174.53125 326.773438 175.175781 326.585938 175.839844 326.460938 C 176.503906 326.339844 177.171875 326.28125 177.847656 326.285156 C 178.523438 326.292969 179.191406 326.367188 179.851562 326.507812 C 180.511719 326.644531 181.15625 326.847656 181.777344 327.113281 L 198.160156 334.105469 C 198.46875 334.238281 198.761719 334.402344 199.042969 334.589844 C 199.320312 334.78125 199.578125 335 199.816406 335.238281 C 200.050781 335.480469 200.261719 335.742188 200.445312 336.027344 C 200.628906 336.308594 200.785156 336.605469 200.910156 336.917969 C 201.035156 337.234375 201.132812 337.554688 201.191406 337.886719 C 201.253906 338.21875 201.285156 338.554688 201.28125 338.890625 C 201.277344 339.230469 201.242188 339.5625 201.171875 339.894531 C 201.101562 340.222656 201 340.542969 200.867188 340.855469 C 200.734375 341.164062 200.574219 341.460938 200.382812 341.738281 C 200.191406 342.019531 199.976562 342.273438 199.734375 342.511719 C 199.496094 342.746094 199.230469 342.957031 198.949219 343.140625 C 198.667969 343.328125 198.367188 343.480469 198.054688 343.609375 C 197.742188 343.734375 197.417969 343.828125 197.085938 343.890625 C 196.753906 343.953125 196.421875 343.980469 196.082031 343.976562 C 195.746094 343.972656 195.410156 343.9375 195.082031 343.867188 C 194.75 343.800781 194.429688 343.699219 194.121094 343.566406 Z M 194.121094 343.566406 " fill-opacity="1" fill-rule="nonzero"/><path fill="#ffffff" d="M 105.605469 225.589844 C 104.929688 225.445312 104.347656 225.121094 103.863281 224.625 C 103.382812 224.125 103.078125 223.535156 102.957031 222.851562 C 102.832031 222.171875 102.910156 221.511719 103.1875 220.875 C 103.46875 220.242188 103.898438 219.738281 104.484375 219.367188 C 109.945312 215.90625 115.761719 213.710938 121.296875 213.003906 C 125.601562 212.460938 128.304688 213.003906 128.597656 213.050781 C 129.042969 213.144531 129.449219 213.316406 129.824219 213.570312 C 130.199219 213.828125 130.507812 214.144531 130.757812 214.519531 C 131.003906 214.898438 131.171875 215.3125 131.253906 215.753906 C 131.339844 216.199219 131.335938 216.644531 131.242188 217.085938 C 131.152344 217.53125 130.976562 217.9375 130.722656 218.3125 C 130.46875 218.6875 130.152344 218.996094 129.773438 219.246094 C 129.398438 219.496094 128.984375 219.660156 128.542969 219.746094 C 128.097656 219.832031 127.652344 219.828125 127.210938 219.734375 C 126.8125 219.664062 118.9375 218.296875 108.136719 225.136719 C 107.355469 225.628906 106.511719 225.78125 105.605469 225.589844 Z M 105.605469 225.589844 " fill-opacity="1" fill-rule="nonzero"/><path fill="#429946" d="M 146.886719 201.929688 C 147.351562 202.238281 147.796875 202.566406 148.230469 202.917969 C 148.660156 203.269531 149.074219 203.640625 149.46875 204.03125 C 149.867188 204.425781 150.242188 204.835938 150.597656 205.261719 C 150.949219 205.691406 151.285156 206.136719 151.59375 206.597656 C 151.90625 207.058594 152.195312 207.535156 152.460938 208.027344 C 152.722656 208.515625 152.964844 209.015625 153.179688 209.53125 C 153.394531 210.042969 153.582031 210.566406 153.746094 211.097656 C 153.910156 211.628906 154.046875 212.167969 154.160156 212.714844 C 154.269531 213.257812 154.355469 213.808594 154.410156 214.363281 C 154.46875 214.917969 154.5 215.472656 154.5 216.027344 C 154.503906 216.585938 154.476562 217.140625 154.425781 217.695312 C 154.375 218.25 154.292969 218.800781 154.1875 219.34375 C 154.082031 219.890625 153.949219 220.433594 153.789062 220.964844 C 153.632812 221.5 153.445312 222.023438 153.234375 222.539062 C 153.023438 223.054688 152.789062 223.558594 152.527344 224.050781 C 152.269531 224.539062 151.984375 225.019531 151.675781 225.484375 C 151.371094 225.949219 151.042969 226.394531 150.691406 226.828125 C 150.339844 227.257812 149.96875 227.671875 149.574219 228.066406 C 149.183594 228.464844 148.773438 228.839844 148.34375 229.195312 C 147.914062 229.546875 147.46875 229.882812 147.007812 230.191406 C 146.546875 230.503906 146.070312 230.792969 145.582031 231.054688 C 145.09375 231.320312 144.589844 231.5625 144.078125 231.777344 C 143.5625 231.992188 143.042969 232.179688 142.507812 232.34375 C 141.976562 232.507812 141.4375 232.644531 140.894531 232.757812 C 140.347656 232.867188 139.796875 232.953125 139.246094 233.007812 C 138.691406 233.066406 138.136719 233.097656 137.578125 233.097656 C 137.023438 233.101562 136.46875 233.074219 135.914062 233.023438 C 135.359375 232.972656 134.808594 232.890625 134.261719 232.785156 C 133.714844 232.679688 133.175781 232.546875 132.644531 232.386719 C 132.109375 232.230469 131.585938 232.042969 131.070312 231.832031 C 130.554688 231.621094 130.050781 231.386719 129.558594 231.125 C 129.066406 230.867188 128.589844 230.582031 128.125 230.273438 C 127.660156 229.96875 127.210938 229.640625 126.78125 229.289062 C 126.347656 228.9375 125.933594 228.566406 125.539062 228.171875 C 125.144531 227.78125 124.769531 227.371094 124.414062 226.941406 C 124.058594 226.511719 123.726562 226.066406 123.414062 225.605469 C 123.105469 225.144531 122.816406 224.667969 122.550781 224.179688 C 122.285156 223.691406 122.046875 223.1875 121.832031 222.675781 C 121.617188 222.160156 121.425781 221.640625 121.261719 221.105469 C 121.097656 220.574219 120.960938 220.035156 120.851562 219.492188 C 120.738281 218.945312 120.65625 218.394531 120.597656 217.84375 C 120.542969 217.289062 120.511719 216.734375 120.507812 216.175781 C 120.507812 215.621094 120.53125 215.066406 120.585938 214.511719 C 120.636719 213.957031 120.714844 213.40625 120.820312 212.859375 C 120.929688 212.3125 121.0625 211.773438 121.21875 211.238281 C 121.378906 210.707031 121.5625 210.183594 121.773438 209.667969 C 121.984375 209.152344 122.222656 208.648438 122.480469 208.15625 C 122.742188 207.664062 123.027344 207.1875 123.332031 206.722656 C 123.640625 206.257812 123.96875 205.808594 124.320312 205.378906 C 124.671875 204.945312 125.042969 204.53125 125.433594 204.136719 C 125.828125 203.742188 126.238281 203.367188 126.664062 203.011719 C 127.09375 202.65625 127.539062 202.324219 128 202.011719 C 128.460938 201.703125 128.9375 201.414062 129.429688 201.148438 C 129.917969 200.882812 130.417969 200.644531 130.933594 200.429688 C 131.445312 200.214844 131.96875 200.023438 132.5 199.859375 C 133.03125 199.695312 133.570312 199.558594 134.117188 199.449219 C 134.664062 199.335938 135.210938 199.253906 135.765625 199.195312 C 136.320312 199.140625 136.875 199.109375 137.429688 199.105469 C 137.988281 199.105469 138.542969 199.128906 139.097656 199.183594 C 139.652344 199.234375 140.203125 199.3125 140.75 199.417969 C 141.292969 199.523438 141.835938 199.65625 142.367188 199.816406 C 142.902344 199.976562 143.425781 200.160156 143.941406 200.371094 C 144.457031 200.582031 144.960938 200.820312 145.453125 201.078125 C 145.945312 201.339844 146.421875 201.621094 146.886719 201.929688 Z M 146.886719 201.929688 " fill-opacity="1" fill-rule="nonzero"/><path fill="#4caf50" d="M 98.109375 204.15625 C 98.84375 204.316406 99.570312 204.507812 100.285156 204.738281 C 101 204.96875 101.703125 205.230469 102.394531 205.53125 C 103.082031 205.828125 103.757812 206.160156 104.414062 206.527344 C 105.070312 206.890625 105.707031 207.289062 106.328125 207.714844 C 106.945312 208.144531 107.539062 208.601562 108.113281 209.085938 C 108.6875 209.570312 109.234375 210.085938 109.757812 210.625 C 110.28125 211.164062 110.777344 211.730469 111.242188 212.316406 C 111.710938 212.90625 112.148438 213.515625 112.554688 214.148438 C 112.964844 214.78125 113.339844 215.429688 113.683594 216.097656 C 114.027344 216.765625 114.335938 217.449219 114.613281 218.148438 C 114.890625 218.847656 115.132812 219.558594 115.335938 220.28125 C 115.542969 221.003906 115.714844 221.734375 115.847656 222.476562 C 115.984375 223.214844 116.082031 223.960938 116.144531 224.707031 C 116.207031 225.457031 116.230469 226.207031 116.21875 226.960938 C 116.207031 227.710938 116.15625 228.460938 116.070312 229.207031 C 115.988281 229.953125 115.863281 230.695312 115.707031 231.429688 C 115.546875 232.164062 115.351562 232.890625 115.125 233.605469 C 114.894531 234.320312 114.628906 235.023438 114.332031 235.714844 C 114.03125 236.402344 113.699219 237.078125 113.335938 237.734375 C 112.96875 238.390625 112.574219 239.027344 112.148438 239.644531 C 111.71875 240.265625 111.261719 240.859375 110.777344 241.433594 C 110.289062 242.007812 109.777344 242.554688 109.238281 243.078125 C 108.695312 243.601562 108.132812 244.097656 107.542969 244.5625 C 106.957031 245.03125 106.34375 245.46875 105.714844 245.875 C 105.082031 246.285156 104.433594 246.660156 103.761719 247.003906 C 103.09375 247.347656 102.410156 247.65625 101.710938 247.933594 C 101.011719 248.210938 100.300781 248.449219 99.578125 248.65625 C 98.855469 248.863281 98.125 249.035156 97.386719 249.167969 C 96.648438 249.304688 95.902344 249.402344 95.152344 249.464844 C 94.40625 249.527344 93.652344 249.550781 92.902344 249.539062 C 92.152344 249.527344 91.402344 249.476562 90.65625 249.390625 C 89.90625 249.304688 89.167969 249.183594 88.433594 249.027344 C 87.699219 248.867188 86.972656 248.671875 86.257812 248.445312 C 85.542969 248.214844 84.839844 247.949219 84.148438 247.652344 C 83.460938 247.351562 82.785156 247.019531 82.128906 246.65625 C 81.472656 246.289062 80.832031 245.894531 80.214844 245.464844 C 79.597656 245.039062 79 244.582031 78.429688 244.097656 C 77.855469 243.609375 77.308594 243.097656 76.785156 242.558594 C 76.261719 242.015625 75.765625 241.453125 75.296875 240.863281 C 74.832031 240.273438 74.394531 239.664062 73.984375 239.035156 C 73.578125 238.402344 73.203125 237.75 72.859375 237.082031 C 72.515625 236.414062 72.207031 235.730469 71.929688 235.03125 C 71.652344 234.332031 71.410156 233.621094 71.203125 232.898438 C 70.996094 232.175781 70.828125 231.445312 70.691406 230.707031 C 70.558594 229.96875 70.460938 229.222656 70.398438 228.472656 C 70.335938 227.722656 70.3125 226.972656 70.324219 226.222656 C 70.335938 225.472656 70.382812 224.722656 70.46875 223.976562 C 70.554688 223.226562 70.675781 222.488281 70.835938 221.753906 C 70.996094 221.019531 71.1875 220.292969 71.417969 219.578125 C 71.648438 218.859375 71.914062 218.160156 72.210938 217.46875 C 72.507812 216.777344 72.839844 216.105469 73.207031 215.449219 C 73.570312 214.792969 73.96875 214.152344 74.394531 213.535156 C 74.824219 212.917969 75.28125 212.320312 75.765625 211.75 C 76.253906 211.175781 76.765625 210.625 77.304688 210.105469 C 77.84375 209.582031 78.410156 209.085938 78.996094 208.617188 C 79.585938 208.152344 80.195312 207.714844 80.828125 207.304688 C 81.460938 206.898438 82.109375 206.523438 82.777344 206.179688 C 83.445312 205.835938 84.128906 205.527344 84.828125 205.25 C 85.527344 204.972656 86.238281 204.730469 86.960938 204.523438 C 87.683594 204.316406 88.414062 204.148438 89.15625 204.011719 C 89.894531 203.878906 90.640625 203.777344 91.386719 203.71875 C 92.136719 203.65625 92.886719 203.632812 93.640625 203.644531 C 94.390625 203.65625 95.140625 203.703125 95.886719 203.789062 C 96.632812 203.875 97.375 203.996094 98.109375 204.15625 Z M 98.109375 204.15625 " fill-opacity="1" fill-rule="nonzero"/><path fill="#ffffff" d="M 133.914062 294.558594 C 133.078125 294.558594 132.34375 294.289062 131.710938 293.742188 C 131.363281 293.449219 131.089844 293.101562 130.882812 292.699219 C 130.675781 292.296875 130.554688 291.867188 130.519531 291.417969 C 130.480469 290.964844 130.53125 290.527344 130.671875 290.09375 C 130.808594 289.664062 131.027344 289.277344 131.320312 288.933594 C 144.570312 273.355469 149.640625 259.558594 149.691406 259.421875 C 149.847656 258.996094 150.074219 258.613281 150.378906 258.28125 C 150.683594 257.945312 151.039062 257.679688 151.449219 257.488281 C 151.855469 257.296875 152.289062 257.1875 152.738281 257.167969 C 153.191406 257.144531 153.628906 257.210938 154.054688 257.363281 C 154.480469 257.515625 154.863281 257.742188 155.195312 258.046875 C 155.53125 258.351562 155.796875 258.707031 155.988281 259.117188 C 156.183594 259.527344 156.289062 259.957031 156.3125 260.40625 C 156.332031 260.859375 156.269531 261.296875 156.117188 261.722656 C 155.898438 262.332031 150.632812 276.769531 136.519531 293.355469 C 136.195312 293.738281 135.804688 294.035156 135.347656 294.242188 C 134.894531 294.453125 134.417969 294.558594 133.914062 294.558594 Z M 133.914062 294.558594 " fill-opacity="1" fill-rule="nonzero"/><path fill="#4caf50" d="M 124.503906 339.582031 L 100.804688 321.078125 C 100.035156 320.476562 99.335938 319.808594 98.699219 319.074219 C 98.0625 318.335938 97.507812 317.542969 97.027344 316.695312 C 96.546875 315.847656 96.15625 314.964844 95.847656 314.039062 C 95.542969 313.113281 95.332031 312.167969 95.214844 311.203125 C 95.09375 310.238281 95.070312 309.269531 95.140625 308.296875 C 95.214844 307.328125 95.378906 306.371094 95.640625 305.433594 C 95.898438 304.496094 96.25 303.59375 96.6875 302.722656 C 97.125 301.855469 97.644531 301.035156 98.242188 300.269531 L 108.847656 286.679688 C 109.449219 285.914062 110.117188 285.210938 110.855469 284.578125 C 111.589844 283.941406 112.382812 283.382812 113.230469 282.902344 C 114.078125 282.421875 114.964844 282.03125 115.886719 281.726562 C 116.8125 281.421875 117.757812 281.207031 118.722656 281.089844 C 119.691406 280.972656 120.65625 280.949219 121.628906 281.019531 C 122.601562 281.089844 123.554688 281.257812 124.492188 281.515625 C 125.429688 281.777344 126.335938 282.125 127.203125 282.5625 C 128.074219 283 128.890625 283.519531 129.660156 284.117188 L 132.058594 285.992188 C 132.757812 286.535156 133.425781 287.113281 134.066406 287.722656 C 134.707031 288.335938 135.316406 288.976562 135.894531 289.644531 C 136.472656 290.316406 137.015625 291.011719 137.527344 291.738281 C 138.035156 292.460938 138.507812 293.207031 138.945312 293.976562 C 139.378906 294.746094 139.777344 295.535156 140.136719 296.347656 C 140.496094 297.15625 140.8125 297.980469 141.089844 298.820312 C 141.367188 299.660156 141.601562 300.511719 141.796875 301.375 C 141.992188 302.242188 142.140625 303.113281 142.25 303.988281 C 142.359375 304.867188 142.421875 305.75 142.445312 306.632812 C 142.464844 307.519531 142.445312 308.402344 142.378906 309.285156 C 142.3125 310.167969 142.203125 311.046875 142.054688 311.917969 C 141.902344 312.789062 141.707031 313.652344 141.472656 314.503906 C 141.234375 315.359375 140.957031 316.199219 140.640625 317.023438 C 140.320312 317.847656 139.960938 318.65625 139.5625 319.449219 C 139.167969 320.238281 138.730469 321.007812 138.257812 321.753906 C 137.78125 322.503906 137.273438 323.226562 136.730469 323.921875 Z M 124.503906 339.582031 " fill-opacity="1" fill-rule="nonzero"/><path fill="#ffffff" d="M 124.628906 339.683594 L 102.488281 322.398438 C 102.902344 321.863281 103.367188 321.378906 103.878906 320.9375 C 104.386719 320.496094 104.9375 320.109375 105.527344 319.777344 C 106.113281 319.445312 106.726562 319.171875 107.367188 318.960938 C 108.011719 318.75 108.667969 318.601562 109.335938 318.519531 C 110.007812 318.4375 110.679688 318.417969 111.351562 318.46875 C 112.027344 318.519531 112.6875 318.632812 113.339844 318.8125 C 113.988281 318.996094 114.617188 319.238281 115.21875 319.539062 C 115.824219 319.84375 116.390625 320.203125 116.921875 320.621094 L 130.960938 331.578125 C 131.226562 331.785156 131.46875 332.019531 131.6875 332.273438 C 131.910156 332.53125 132.101562 332.804688 132.269531 333.097656 C 132.4375 333.390625 132.570312 333.699219 132.679688 334.019531 C 132.785156 334.339844 132.859375 334.667969 132.898438 335.003906 C 132.941406 335.339844 132.949219 335.675781 132.921875 336.011719 C 132.898438 336.347656 132.839844 336.679688 132.75 337.003906 C 132.660156 337.328125 132.539062 337.644531 132.386719 337.945312 C 132.234375 338.246094 132.054688 338.53125 131.847656 338.796875 C 131.640625 339.0625 131.410156 339.304688 131.152344 339.527344 C 130.898438 339.746094 130.621094 339.941406 130.328125 340.105469 C 130.035156 340.273438 129.726562 340.410156 129.40625 340.515625 C 129.085938 340.621094 128.757812 340.695312 128.421875 340.734375 C 128.089844 340.777344 127.753906 340.785156 127.414062 340.761719 C 127.078125 340.734375 126.746094 340.679688 126.421875 340.585938 C 126.097656 340.496094 125.785156 340.375 125.480469 340.226562 C 125.179688 340.074219 124.894531 339.894531 124.628906 339.683594 Z M 124.628906 339.683594 " fill-opacity="1" fill-rule="nonzero"/><g clip-path="url(#487ae97355)"><path fill="#ffffff" d="M 319.371094 219.113281 C 317.582031 216.628906 314.347656 215.898438 312.171875 217.484375 L 303.296875 223.890625 C 301.101562 225.46875 300.777344 228.765625 302.574219 231.25 C 304.363281 233.734375 307.589844 234.464844 309.773438 232.878906 L 314.210938 229.679688 L 318.648438 226.476562 C 320.839844 224.894531 321.164062 221.597656 319.371094 219.113281 Z M 319.371094 219.113281 " fill-opacity="1" fill-rule="nonzero"/></g><path fill="#ffffff" d="M 313.292969 210.695312 C 311.503906 208.210938 308.269531 207.480469 306.09375 209.066406 L 297.203125 215.472656 C 295.011719 217.058594 294.683594 220.351562 296.480469 222.835938 C 298.269531 225.320312 301.496094 226.046875 303.679688 224.46875 L 308.117188 221.261719 L 312.554688 218.058594 C 314.761719 216.46875 315.089844 213.175781 313.292969 210.695312 Z M 313.292969 210.695312 " fill-opacity="1" fill-rule="nonzero"/><path fill="#ffffff" d="M 296.035156 201.207031 C 294.246094 198.722656 291.105469 197.925781 289.027344 199.429688 L 280.613281 205.496094 C 278.558594 207 278.304688 210.226562 280.101562 212.695312 C 281.890625 215.179688 285.03125 215.976562 287.109375 214.476562 L 291.316406 211.441406 L 295.523438 208.402344 C 297.59375 206.921875 297.832031 203.691406 296.035156 201.207031 Z M 296.035156 201.207031 " fill-opacity="1" fill-rule="nonzero"/><path fill="#ffffff" d="M 274.871094 228.84375 C 274.382812 228.683594 273.886719 228.636719 273.378906 228.703125 C 272.875 228.765625 272.40625 228.9375 271.976562 229.214844 C 261.175781 236.140625 253.03125 234.726562 252.949219 234.710938 C 252.496094 234.601562 252.042969 234.585938 251.585938 234.660156 C 251.128906 234.734375 250.703125 234.894531 250.3125 235.144531 C 249.921875 235.390625 249.59375 235.707031 249.332031 236.089844 C 249.066406 236.46875 248.890625 236.886719 248.796875 237.339844 C 248.703125 237.796875 248.703125 238.25 248.792969 238.703125 C 248.886719 239.160156 249.0625 239.578125 249.324219 239.960938 C 249.585938 240.339844 249.914062 240.65625 250.304688 240.90625 C 250.695312 241.15625 251.117188 241.320312 251.574219 241.394531 C 254.007812 241.777344 256.441406 241.777344 258.871094 241.394531 C 264.40625 240.664062 270.183594 238.4375 275.652344 234.953125 C 276.207031 234.597656 276.625 234.121094 276.902344 233.523438 C 277.179688 232.925781 277.277344 232.300781 277.195312 231.644531 C 277.113281 230.992188 276.859375 230.410156 276.441406 229.902344 C 276.019531 229.394531 275.496094 229.039062 274.871094 228.832031 Z M 274.871094 228.84375 " fill-opacity="1" fill-rule="nonzero"/><path fill="#429946" d="M 255.964844 229.035156 C 256.253906 229.507812 256.519531 229.992188 256.761719 230.492188 C 257.003906 230.992188 257.21875 231.5 257.410156 232.023438 C 257.601562 232.542969 257.769531 233.070312 257.90625 233.609375 C 258.046875 234.144531 258.160156 234.6875 258.246094 235.234375 C 258.332031 235.78125 258.390625 236.332031 258.425781 236.886719 C 258.457031 237.441406 258.460938 237.996094 258.441406 238.550781 C 258.417969 239.105469 258.367188 239.65625 258.292969 240.203125 C 258.214844 240.753906 258.113281 241.296875 257.980469 241.835938 C 257.851562 242.375 257.695312 242.910156 257.515625 243.433594 C 257.332031 243.957031 257.125 244.46875 256.890625 244.972656 C 256.660156 245.476562 256.402344 245.96875 256.121094 246.445312 C 255.839844 246.925781 255.539062 247.386719 255.210938 247.835938 C 254.886719 248.285156 254.539062 248.714844 254.167969 249.128906 C 253.800781 249.542969 253.410156 249.941406 253.003906 250.316406 C 252.597656 250.691406 252.171875 251.046875 251.730469 251.382812 C 251.285156 251.714844 250.828125 252.027344 250.355469 252.316406 C 249.882812 252.609375 249.394531 252.875 248.898438 253.113281 C 248.398438 253.355469 247.886719 253.574219 247.367188 253.765625 C 246.847656 253.957031 246.316406 254.121094 245.78125 254.261719 C 245.246094 254.402344 244.703125 254.515625 244.15625 254.601562 C 243.605469 254.6875 243.054688 254.746094 242.503906 254.777344 C 241.949219 254.8125 241.394531 254.816406 240.839844 254.792969 C 240.285156 254.769531 239.734375 254.722656 239.183594 254.644531 C 238.636719 254.570312 238.089844 254.464844 237.550781 254.335938 C 237.011719 254.207031 236.480469 254.050781 235.957031 253.867188 C 235.433594 253.6875 234.917969 253.480469 234.417969 253.246094 C 233.914062 253.011719 233.421875 252.757812 232.941406 252.476562 C 232.464844 252.195312 232 251.890625 231.554688 251.566406 C 231.105469 251.238281 230.671875 250.890625 230.257812 250.523438 C 229.84375 250.152344 229.449219 249.765625 229.074219 249.359375 C 228.695312 248.949219 228.339844 248.527344 228.007812 248.082031 C 227.671875 247.640625 227.359375 247.183594 227.070312 246.710938 C 226.78125 246.238281 226.515625 245.75 226.273438 245.25 C 226.03125 244.75 225.816406 244.242188 225.625 243.722656 C 225.433594 243.199219 225.269531 242.671875 225.128906 242.136719 C 224.988281 241.597656 224.875 241.054688 224.789062 240.507812 C 224.703125 239.960938 224.644531 239.410156 224.609375 238.855469 C 224.578125 238.300781 224.574219 237.75 224.597656 237.195312 C 224.617188 236.640625 224.667969 236.089844 224.742188 235.539062 C 224.820312 234.988281 224.921875 234.445312 225.054688 233.90625 C 225.183594 233.367188 225.339844 232.835938 225.519531 232.3125 C 225.703125 231.789062 225.910156 231.273438 226.144531 230.769531 C 226.375 230.265625 226.632812 229.777344 226.914062 229.296875 C 227.195312 228.820312 227.496094 228.355469 227.824219 227.90625 C 228.152344 227.457031 228.5 227.027344 228.867188 226.613281 C 229.234375 226.199219 229.625 225.804688 230.03125 225.425781 C 230.4375 225.050781 230.863281 224.695312 231.304688 224.359375 C 231.75 224.027344 232.207031 223.714844 232.679688 223.425781 C 233.152344 223.136719 233.640625 222.871094 234.136719 222.628906 C 234.636719 222.386719 235.148438 222.171875 235.667969 221.980469 C 236.1875 221.789062 236.71875 221.621094 237.253906 221.480469 C 237.789062 221.34375 238.332031 221.230469 238.882812 221.144531 C 239.429688 221.054688 239.980469 220.996094 240.535156 220.964844 C 241.085938 220.933594 241.640625 220.929688 242.195312 220.949219 C 242.75 220.972656 243.300781 221.019531 243.851562 221.097656 C 244.398438 221.175781 244.945312 221.277344 245.484375 221.40625 C 246.023438 221.539062 246.554688 221.691406 247.078125 221.875 C 247.601562 222.058594 248.117188 222.265625 248.621094 222.496094 C 249.121094 222.730469 249.613281 222.988281 250.09375 223.265625 C 250.570312 223.546875 251.035156 223.851562 251.480469 224.179688 C 251.929688 224.503906 252.363281 224.851562 252.777344 225.222656 C 253.191406 225.589844 253.585938 225.976562 253.960938 226.386719 C 254.339844 226.792969 254.695312 227.21875 255.027344 227.660156 C 255.363281 228.101562 255.675781 228.5625 255.964844 229.035156 Z M 255.964844 229.035156 " fill-opacity="1" fill-rule="nonzero"/><path fill="#429946" d="M 299.414062 241.238281 C 299.414062 241.988281 299.378906 242.738281 299.304688 243.484375 C 299.230469 244.234375 299.121094 244.976562 298.972656 245.714844 C 298.828125 246.449219 298.644531 247.179688 298.425781 247.898438 C 298.207031 248.617188 297.957031 249.324219 297.667969 250.019531 C 297.378906 250.714844 297.058594 251.390625 296.703125 252.054688 C 296.351562 252.71875 295.964844 253.363281 295.546875 253.988281 C 295.128906 254.613281 294.683594 255.214844 294.207031 255.796875 C 293.730469 256.378906 293.222656 256.933594 292.691406 257.464844 C 292.160156 257.996094 291.605469 258.5 291.023438 258.976562 C 290.441406 259.453125 289.839844 259.902344 289.214844 260.320312 C 288.589844 260.738281 287.945312 261.121094 287.28125 261.476562 C 286.621094 261.832031 285.941406 262.152344 285.246094 262.441406 C 284.550781 262.726562 283.847656 262.980469 283.125 263.199219 C 282.40625 263.417969 281.679688 263.597656 280.941406 263.746094 C 280.203125 263.894531 279.460938 264.003906 278.714844 264.078125 C 277.964844 264.148438 277.214844 264.1875 276.464844 264.1875 C 275.710938 264.1875 274.960938 264.148438 274.214844 264.078125 C 273.464844 264.003906 272.722656 263.894531 271.988281 263.746094 C 271.25 263.597656 270.519531 263.417969 269.800781 263.199219 C 269.082031 262.980469 268.375 262.726562 267.679688 262.441406 C 266.988281 262.152344 266.308594 261.832031 265.644531 261.476562 C 264.984375 261.121094 264.339844 260.738281 263.714844 260.320312 C 263.089844 259.902344 262.484375 259.453125 261.90625 258.976562 C 261.324219 258.5 260.765625 257.996094 260.234375 257.464844 C 259.703125 256.933594 259.199219 256.378906 258.722656 255.796875 C 258.246094 255.214844 257.800781 254.613281 257.382812 253.988281 C 256.964844 253.363281 256.578125 252.71875 256.222656 252.054688 C 255.871094 251.390625 255.546875 250.714844 255.261719 250.019531 C 254.972656 249.324219 254.71875 248.617188 254.5 247.898438 C 254.285156 247.179688 254.101562 246.449219 253.953125 245.714844 C 253.808594 244.976562 253.699219 244.234375 253.625 243.484375 C 253.550781 242.738281 253.511719 241.988281 253.511719 241.238281 C 253.511719 240.484375 253.550781 239.734375 253.625 238.988281 C 253.699219 238.238281 253.808594 237.496094 253.953125 236.757812 C 254.101562 236.023438 254.285156 235.292969 254.5 234.574219 C 254.71875 233.855469 254.972656 233.148438 255.261719 232.453125 C 255.546875 231.757812 255.871094 231.082031 256.222656 230.417969 C 256.578125 229.753906 256.964844 229.109375 257.382812 228.484375 C 257.800781 227.859375 258.246094 227.257812 258.722656 226.675781 C 259.199219 226.09375 259.703125 225.539062 260.234375 225.007812 C 260.765625 224.476562 261.324219 223.972656 261.90625 223.496094 C 262.484375 223.019531 263.089844 222.570312 263.714844 222.152344 C 264.339844 221.734375 264.984375 221.351562 265.644531 220.996094 C 266.308594 220.640625 266.988281 220.320312 267.679688 220.03125 C 268.375 219.746094 269.082031 219.492188 269.800781 219.273438 C 270.519531 219.054688 271.25 218.875 271.988281 218.726562 C 272.722656 218.582031 273.464844 218.46875 274.214844 218.394531 C 274.960938 218.324219 275.710938 218.285156 276.464844 218.285156 C 277.214844 218.285156 277.964844 218.324219 278.714844 218.394531 C 279.460938 218.46875 280.203125 218.582031 280.941406 218.726562 C 281.679688 218.875 282.40625 219.054688 283.125 219.273438 C 283.847656 219.492188 284.550781 219.746094 285.246094 220.03125 C 285.941406 220.320312 286.621094 220.640625 287.28125 220.996094 C 287.945312 221.351562 288.589844 221.734375 289.214844 222.152344 C 289.839844 222.570312 290.441406 223.019531 291.023438 223.496094 C 291.605469 223.972656 292.160156 224.476562 292.691406 225.007812 C 293.222656 225.539062 293.730469 226.09375 294.207031 226.675781 C 294.683594 227.257812 295.128906 227.859375 295.546875 228.484375 C 295.964844 229.109375 296.351562 229.753906 296.703125 230.417969 C 297.058594 231.082031 297.378906 231.757812 297.667969 232.453125 C 297.957031 233.148438 298.207031 233.855469 298.425781 234.574219 C 298.644531 235.292969 298.828125 236.023438 298.972656 236.757812 C 299.121094 237.496094 299.230469 238.238281 299.304688 238.988281 C 299.378906 239.734375 299.414062 240.484375 299.414062 241.238281 Z M 299.414062 241.238281 " fill-opacity="1" fill-rule="nonzero"/><path fill="#4caf50" d="M 231.183594 218.398438 C 231.183594 218.398438 223.1875 251.589844 210.929688 270.214844 C 210.402344 271.019531 209.777344 271.738281 209.058594 272.378906 C 208.339844 273.015625 207.550781 273.550781 206.691406 273.976562 C 205.828125 274.40625 204.929688 274.714844 203.984375 274.902344 C 203.042969 275.089844 202.09375 275.152344 201.132812 275.089844 C 190.878906 274.394531 169.25 271.859375 151.1875 262.648438 C 150.261719 262.175781 149.421875 261.582031 148.664062 260.867188 C 147.910156 260.152344 147.269531 259.34375 146.75 258.441406 C 146.226562 257.542969 145.84375 256.585938 145.597656 255.574219 C 145.351562 254.5625 145.253906 253.539062 145.304688 252.5 C 146 237.554688 148.390625 202.214844 155.765625 196.347656 C 171.125 184.105469 231.183594 218.398438 231.183594 218.398438 Z M 231.183594 218.398438 " fill-opacity="1" fill-rule="nonzero"/><path fill="#ffffff" d="M 142.25 229.050781 L 148.832031 203.824219 C 148.945312 203.394531 149.097656 202.976562 149.292969 202.578125 C 149.484375 202.179688 149.71875 201.800781 149.984375 201.449219 C 150.253906 201.09375 150.554688 200.769531 150.886719 200.476562 C 151.21875 200.179688 151.574219 199.921875 151.957031 199.695312 C 152.339844 199.472656 152.742188 199.285156 153.160156 199.140625 C 153.582031 198.996094 154.011719 198.894531 154.449219 198.832031 C 154.890625 198.769531 155.332031 198.753906 155.773438 198.78125 C 156.21875 198.804688 156.65625 198.875 157.085938 198.988281 L 227.222656 217.296875 C 227.652344 217.410156 228.066406 217.5625 228.464844 217.753906 C 228.863281 217.949219 229.242188 218.179688 229.597656 218.449219 C 229.949219 218.714844 230.273438 219.015625 230.570312 219.347656 C 230.863281 219.679688 231.125 220.039062 231.347656 220.421875 C 231.574219 220.804688 231.757812 221.203125 231.902344 221.625 C 232.046875 222.042969 232.152344 222.472656 232.210938 222.914062 C 232.273438 223.351562 232.289062 223.792969 232.265625 224.238281 C 232.238281 224.679688 232.167969 225.117188 232.058594 225.546875 L 225.472656 250.773438 C 225.359375 251.203125 225.207031 251.617188 225.011719 252.019531 C 224.820312 252.417969 224.589844 252.792969 224.320312 253.148438 C 224.050781 253.503906 223.753906 253.828125 223.421875 254.121094 C 223.089844 254.417969 222.730469 254.675781 222.347656 254.902344 C 221.964844 255.125 221.5625 255.308594 221.144531 255.457031 C 220.722656 255.601562 220.292969 255.703125 219.855469 255.765625 C 219.414062 255.824219 218.972656 255.84375 218.53125 255.816406 C 218.085938 255.789062 217.652344 255.722656 217.222656 255.609375 L 147.082031 237.300781 C 146.652344 237.1875 146.238281 237.035156 145.839844 236.839844 C 145.441406 236.648438 145.0625 236.417969 144.710938 236.148438 C 144.355469 235.878906 144.03125 235.582031 143.734375 235.25 C 143.441406 234.917969 143.179688 234.558594 142.957031 234.175781 C 142.734375 233.792969 142.546875 233.390625 142.402344 232.972656 C 142.257812 232.554688 142.152344 232.125 142.09375 231.683594 C 142.03125 231.242188 142.015625 230.800781 142.039062 230.359375 C 142.066406 229.914062 142.136719 229.480469 142.25 229.050781 Z M 142.25 229.050781 " fill-opacity="1" fill-rule="nonzero"/><path fill="#429946" d="M 243.097656 58.839844 C 243.433594 59.507812 243.738281 60.1875 244.007812 60.886719 C 244.28125 61.585938 244.515625 62.292969 244.714844 63.015625 C 244.917969 63.734375 245.082031 64.464844 245.210938 65.203125 C 245.339844 65.9375 245.433594 66.679688 245.488281 67.425781 C 245.546875 68.175781 245.566406 68.921875 245.550781 69.667969 C 245.53125 70.417969 245.476562 71.164062 245.386719 71.90625 C 245.296875 72.648438 245.171875 73.386719 245.007812 74.117188 C 244.847656 74.847656 244.648438 75.566406 244.414062 76.277344 C 244.179688 76.992188 243.914062 77.6875 243.609375 78.371094 C 243.308594 79.058594 242.972656 79.726562 242.605469 80.378906 C 242.238281 81.03125 241.839844 81.664062 241.410156 82.273438 C 240.980469 82.886719 240.519531 83.476562 240.03125 84.046875 C 239.546875 84.613281 239.03125 85.15625 238.488281 85.671875 C 237.949219 86.1875 237.382812 86.679688 236.792969 87.140625 C 236.203125 87.601562 235.59375 88.035156 234.960938 88.433594 C 234.332031 88.835938 233.679688 89.207031 233.011719 89.542969 C 232.34375 89.882812 231.664062 90.183594 230.964844 90.457031 C 230.265625 90.726562 229.558594 90.960938 228.835938 91.164062 C 228.113281 91.363281 227.386719 91.53125 226.648438 91.660156 C 225.910156 91.789062 225.167969 91.878906 224.421875 91.9375 C 223.675781 91.992188 222.929688 92.011719 222.179688 91.996094 C 221.433594 91.980469 220.6875 91.925781 219.945312 91.835938 C 219.203125 91.746094 218.464844 91.617188 217.734375 91.457031 C 217.003906 91.292969 216.28125 91.09375 215.570312 90.859375 C 214.859375 90.628906 214.164062 90.359375 213.476562 90.058594 C 212.792969 89.753906 212.125 89.421875 211.472656 89.054688 C 210.820312 88.683594 210.1875 88.285156 209.574219 87.855469 C 208.964844 87.425781 208.375 86.96875 207.804688 86.480469 C 207.238281 85.992188 206.695312 85.476562 206.179688 84.9375 C 205.660156 84.394531 205.171875 83.828125 204.710938 83.242188 C 204.25 82.652344 203.816406 82.039062 203.417969 81.410156 C 203.015625 80.777344 202.644531 80.128906 202.308594 79.460938 C 201.96875 78.792969 201.664062 78.109375 201.394531 77.410156 C 201.125 76.714844 200.886719 76.003906 200.6875 75.28125 C 200.488281 74.5625 200.320312 73.832031 200.191406 73.097656 C 200.0625 72.359375 199.96875 71.617188 199.914062 70.871094 C 199.859375 70.125 199.839844 69.375 199.855469 68.628906 C 199.871094 67.878906 199.925781 67.132812 200.015625 66.390625 C 200.105469 65.648438 200.234375 64.910156 200.394531 64.179688 C 200.558594 63.449219 200.757812 62.730469 200.988281 62.019531 C 201.222656 61.308594 201.492188 60.609375 201.792969 59.925781 C 202.09375 59.238281 202.429688 58.570312 202.796875 57.921875 C 203.164062 57.269531 203.566406 56.636719 203.996094 56.023438 C 204.425781 55.410156 204.882812 54.820312 205.371094 54.253906 C 205.859375 53.683594 206.375 53.144531 206.914062 52.625 C 207.457031 52.109375 208.019531 51.621094 208.609375 51.15625 C 209.199219 50.695312 209.808594 50.265625 210.441406 49.863281 C 211.074219 49.460938 211.722656 49.09375 212.390625 48.753906 C 213.058594 48.417969 213.742188 48.113281 214.441406 47.84375 C 215.136719 47.570312 215.847656 47.335938 216.566406 47.132812 C 217.289062 46.933594 218.019531 46.769531 218.753906 46.640625 C 219.492188 46.511719 220.234375 46.417969 220.980469 46.359375 C 221.726562 46.304688 222.472656 46.285156 223.222656 46.300781 C 223.972656 46.320312 224.714844 46.371094 225.460938 46.464844 C 226.203125 46.554688 226.9375 46.679688 227.667969 46.84375 C 228.398438 47.003906 229.121094 47.203125 229.832031 47.4375 C 230.542969 47.671875 231.242188 47.9375 231.925781 48.238281 C 232.609375 48.542969 233.277344 48.878906 233.929688 49.246094 C 234.582031 49.613281 235.214844 50.011719 235.828125 50.441406 C 236.441406 50.871094 237.03125 51.332031 237.597656 51.816406 C 238.164062 52.304688 238.707031 52.820312 239.226562 53.363281 C 239.742188 53.902344 240.230469 54.46875 240.691406 55.058594 C 241.15625 55.648438 241.585938 56.257812 241.988281 56.886719 C 242.390625 57.519531 242.757812 58.171875 243.097656 58.839844 Z M 243.097656 58.839844 " fill-opacity="1" fill-rule="nonzero"/><path fill="#429946" d="M 281.410156 199.167969 L 305.785156 201.367188 C 306.277344 201.410156 306.769531 201.410156 307.261719 201.367188 C 307.753906 201.320312 308.238281 201.230469 308.714844 201.09375 C 309.191406 200.960938 309.648438 200.785156 310.09375 200.566406 C 310.535156 200.347656 310.957031 200.089844 311.351562 199.792969 C 311.746094 199.496094 312.113281 199.167969 312.449219 198.804688 C 312.785156 198.441406 313.085938 198.050781 313.347656 197.632812 C 313.613281 197.214844 313.835938 196.777344 314.019531 196.320312 C 314.203125 195.859375 314.34375 195.386719 314.441406 194.902344 L 319.792969 168.164062 C 319.886719 167.710938 319.9375 167.257812 319.949219 166.800781 C 319.964844 166.34375 319.9375 165.886719 319.871094 165.433594 C 319.808594 164.976562 319.707031 164.53125 319.566406 164.097656 C 319.425781 163.660156 319.25 163.238281 319.035156 162.832031 C 318.824219 162.425781 318.578125 162.039062 318.300781 161.675781 C 318.023438 161.308594 317.714844 160.972656 317.378906 160.660156 C 317.042969 160.347656 316.683594 160.066406 316.300781 159.8125 C 315.917969 159.5625 315.515625 159.347656 315.09375 159.164062 L 291.480469 148.878906 Z M 281.410156 199.167969 " fill-opacity="1" fill-rule="nonzero"/><path fill="#429946" d="M 122.109375 167.257812 L 98.765625 159.898438 C 98.296875 159.75 97.839844 159.558594 97.40625 159.328125 C 96.96875 159.09375 96.554688 158.824219 96.167969 158.519531 C 95.78125 158.210938 95.425781 157.871094 95.101562 157.496094 C 94.777344 157.125 94.488281 156.726562 94.234375 156.300781 C 93.984375 155.875 93.773438 155.429688 93.601562 154.964844 C 93.433594 154.5 93.304688 154.023438 93.222656 153.539062 C 93.140625 153.050781 93.101562 152.558594 93.109375 152.066406 C 93.117188 151.570312 93.167969 151.082031 93.265625 150.597656 L 98.617188 123.855469 C 98.707031 123.40625 98.835938 122.96875 99 122.539062 C 99.164062 122.109375 99.367188 121.699219 99.601562 121.304688 C 99.835938 120.914062 100.101562 120.542969 100.398438 120.191406 C 100.699219 119.84375 101.023438 119.523438 101.375 119.230469 C 101.726562 118.9375 102.101562 118.675781 102.5 118.445312 C 102.894531 118.214844 103.308594 118.023438 103.738281 117.863281 C 104.167969 117.703125 104.609375 117.582031 105.0625 117.496094 C 105.511719 117.414062 105.964844 117.367188 106.425781 117.359375 L 132.175781 116.964844 Z M 122.109375 167.257812 " fill-opacity="1" fill-rule="nonzero"/><path fill="#4caf50" d="M 109.644531 142.335938 C 99.800781 191.460938 139.515625 217.417969 192.777344 228.054688 C 246.035156 238.695312 292.671875 230.113281 302.511719 180.972656 C 312.347656 131.832031 278.769531 75.3125 225.507812 64.644531 C 172.246094 53.980469 119.460938 93.210938 109.644531 142.335938 Z M 109.644531 142.335938 " fill-opacity="1" fill-rule="nonzero"/><path fill="#ffffff" d="M 130.957031 147.398438 C 123.3125 185.585938 155.457031 199.292969 196.878906 207.589844 C 238.300781 215.882812 273.21875 215.617188 280.890625 177.417969 C 288.5625 139.222656 262.421875 95.292969 221.027344 87 C 179.636719 78.703125 138.609375 109.210938 130.957031 147.398438 Z M 130.957031 147.398438 " fill-opacity="1" fill-rule="nonzero"/><path fill="#4caf50" d="M 219.792969 164.71875 C 219.644531 165.425781 219.5625 166.140625 219.554688 166.863281 C 219.546875 167.585938 219.609375 168.300781 219.742188 169.011719 C 219.875 169.722656 220.078125 170.410156 220.347656 171.082031 C 220.621094 171.753906 220.953125 172.390625 221.351562 172.992188 C 221.746094 173.597656 222.199219 174.15625 222.707031 174.671875 C 223.21875 175.183594 223.769531 175.644531 224.371094 176.046875 C 224.96875 176.453125 225.601562 176.792969 226.269531 177.070312 C 226.9375 177.351562 227.625 177.5625 228.332031 177.703125 C 229.042969 177.84375 229.757812 177.914062 230.480469 177.914062 C 231.203125 177.914062 231.917969 177.84375 232.628906 177.703125 C 233.335938 177.558594 234.023438 177.347656 234.691406 177.070312 C 235.359375 176.792969 235.992188 176.449219 236.589844 176.046875 C 237.1875 175.640625 237.742188 175.179688 238.25 174.667969 C 238.757812 174.152344 239.210938 173.59375 239.605469 172.988281 C 240.003906 172.382812 240.335938 171.746094 240.609375 171.078125 C 240.878906 170.40625 241.078125 169.714844 241.210938 169.003906 C 242.402344 163.09375 239.234375 153.988281 233.320312 152.808594 C 227.40625 151.625 220.984375 158.804688 219.792969 164.71875 Z M 219.792969 164.71875 " fill-opacity="1" fill-rule="nonzero"/><path fill="#4caf50" d="M 166.558594 154.058594 C 166.429688 154.757812 166.367188 155.460938 166.375 156.171875 C 166.378906 156.882812 166.457031 157.589844 166.601562 158.285156 C 166.746094 158.980469 166.953125 159.660156 167.230469 160.3125 C 167.507812 160.96875 167.84375 161.59375 168.242188 162.183594 C 168.640625 162.769531 169.09375 163.316406 169.597656 163.820312 C 170.101562 164.320312 170.652344 164.769531 171.242188 165.160156 C 171.835938 165.554688 172.460938 165.890625 173.117188 166.160156 C 173.777344 166.433594 174.453125 166.640625 175.152344 166.777344 C 175.847656 166.917969 176.554688 166.988281 177.265625 166.992188 C 177.976562 166.992188 178.679688 166.925781 179.378906 166.792969 C 180.078125 166.65625 180.757812 166.453125 181.414062 166.183594 C 182.074219 165.917969 182.703125 165.585938 183.296875 165.195312 C 183.890625 164.804688 184.441406 164.359375 184.949219 163.863281 C 185.457031 163.363281 185.910156 162.820312 186.3125 162.234375 C 186.714844 161.644531 187.054688 161.023438 187.335938 160.371094 C 187.617188 159.714844 187.828125 159.042969 187.976562 158.34375 C 189.160156 152.433594 186 143.328125 180.085938 142.148438 C 174.171875 140.964844 167.746094 148.136719 166.558594 154.058594 Z M 166.558594 154.058594 " fill-opacity="1" fill-rule="nonzero"/><path fill="#4caf50" d="M 205.183594 175.875 C 201.554688 175.875 196.78125 174.761719 191.695312 170.5625 L 193.429688 168.460938 C 202.578125 176.003906 210.316406 172.210938 210.640625 172.058594 L 211.894531 174.484375 C 209.765625 175.457031 207.527344 175.921875 205.183594 175.875 Z M 205.183594 175.875 " fill-opacity="1" fill-rule="nonzero"/></svg>